<svg width="318" height="318" viewBox="0 0 318 318" fill="none" xmlns="http://www.w3.org/2000/svg">
    <path d="M287.154 305.49H196.451H202.735L260.102 304.825C270.707 303.903 278.18 293.501 274.151 283.653C273.455 281.952 274.183 281.478 273.321 279.837C264.303 262.856 248.666 249.023 230.947 240.987C231.386 240.904 231.828 240.844 232.28 240.783C228.98 239.131 225.582 237.683 222.104 236.449C220.26 235.791 218.393 235.196 216.529 234.674C207.368 232.092 194.988 233.272 191.089 243.416C187.811 251.932 192.164 262.22 200.353 265.95L215.06 271.572C214.936 271.388 214.825 271.203 214.71 271.009L227.5 275.897C227.754 276.075 227.948 276.326 228.055 276.616C228.162 276.907 228.178 277.224 228.1 277.524C228.022 277.824 227.854 278.093 227.619 278.295C227.384 278.497 227.093 278.622 226.785 278.654L195.723 282.047C191.245 282.498 185.639 284.371 182.338 287.453C179.931 289.679 177.902 292.709 177.921 296.545C175.891 296.697 173.873 296.981 171.879 297.394C168.836 298.049 165.738 299.178 165.519 301.032C165.087 304.752 170.375 305.509 173.708 305.509L152.618 305.426C154.882 305.426 155.162 305.407 156.663 303.913C158.164 302.418 159.843 301.267 159.843 299.003L160.027 291.746C160.027 290.251 160.383 289.043 158.889 289.043H145.533C146.076 289.058 146.613 288.916 147.078 288.634C147.543 288.352 147.918 287.942 148.156 287.453C148.166 287.441 148.173 287.427 148.175 287.412C148.843 286.171 148.996 284.387 148.872 282.699L149.028 282.145L149.428 280.67L157.912 275.677C157.976 275.64 158.038 275.6 158.097 275.557C162.523 272.85 163.077 268.014 161.56 263.689C161.528 263.606 161.509 263.533 161.477 263.463C161.407 263.279 161.344 263.104 161.264 262.929C160.859 261.942 160.357 260.999 159.766 260.111C157.575 256.69 154.395 253.901 151.374 253.173C150.527 252.981 149.661 252.885 148.792 252.886C159.305 243.028 171.418 234.267 185.725 231.355C198.242 228.769 211.188 229.106 223.554 232.34C238.004 236.185 251.016 244.167 261.336 254.947C275.226 269.438 281.723 286.369 287.154 305.49Z" fill="#353642" />
    <path d="M145.835 261.921C145.336 262.902 144.52 263.687 143.52 264.147C142.665 264.576 141.761 264.897 140.826 265.101C139.287 265.358 138.743 264.385 137.761 263.431C137.201 262.89 136.556 262.443 135.853 262.108C135.431 261.901 134.969 261.79 134.5 261.783C134.03 261.776 133.565 261.873 133.137 262.067C132.848 262.196 132.602 262.406 132.429 262.672C132.256 262.938 132.164 263.248 132.164 263.565C132.228 264.732 133.837 265.654 134.746 266.137C135.933 266.698 137.168 267.154 138.435 267.498C141.542 268.452 136.368 270.44 135.28 270.564C132.954 270.879 130.593 270.823 128.284 270.399C128.947 271.879 129.456 273.424 129.801 275.01C130.161 276.526 130.58 278.352 130.285 279.878C129.925 281.672 128.714 283.004 127.219 283.907L121.409 259.669C123.551 258.649 125.881 258.082 128.253 258.004C130.625 257.927 132.987 258.34 135.191 259.218C135.926 259.489 136.724 259.543 137.489 259.374C138.254 259.205 138.954 258.819 139.507 258.264L140.101 257.688C140.929 257.508 141.792 257.577 142.582 257.885C143.99 258.416 146.598 260.124 145.835 261.921Z" fill="#3F51B5" />
    <path d="M151.8 289.024H127.811C127.568 291.287 126.497 293.38 124.804 294.901C123.111 296.422 120.915 297.264 118.639 297.263H37.9883C37.9933 299.444 38.862 301.535 40.4043 303.077C41.9466 304.619 44.037 305.488 46.2181 305.493H151.794C153.975 305.486 156.065 304.616 157.609 303.075C159.152 301.533 160.023 299.444 160.034 297.263V291.73C160.034 291.012 159.748 290.324 159.241 289.816C158.733 289.309 158.045 289.024 157.327 289.024H151.8Z" stroke="black" stroke-width="4.83" stroke-miterlimit="10" />
    <path d="M114.753 235.225C115.462 236.201 115.971 237.307 116.251 238.481L127.617 285.863C127.868 286.891 127.933 287.956 127.811 289.008C127.568 291.271 126.497 293.364 124.804 294.885C123.111 296.406 120.915 297.248 118.639 297.247H36.4905C34.4164 297.246 32.403 296.547 30.7746 295.262C29.1462 293.978 27.9974 292.182 27.5134 290.165L16.1608 242.783C15.8329 241.426 15.8175 240.012 16.1157 238.648C16.414 237.284 17.0182 236.005 17.8827 234.909C18.7471 233.812 19.8493 232.926 21.1062 232.318C22.363 231.709 23.7415 231.394 25.1379 231.396H107.274C108.623 231.394 109.956 231.69 111.178 232.262C112.4 232.834 113.481 233.669 114.343 234.706L114.753 235.225Z" stroke="black" stroke-width="4.83" stroke-miterlimit="10" />
    <path d="M74.8994 277.313C79.5777 275.838 82.0262 270.38 80.3685 265.122C78.7107 259.864 73.5743 256.798 68.8961 258.273C64.2179 259.748 61.7693 265.206 63.4271 270.464C65.0849 275.721 70.2212 278.788 74.8994 277.313Z" fill="#D7E8F0" />
    <path d="M232.728 240.507C225.481 241.718 219.91 245.032 216.17 251.891C212.822 258.028 212.43 265.517 216.001 271.607L201.421 266.017C192.978 262.15 190.008 253.557 193.392 244.733C197.414 234.22 210.179 232.999 219.627 235.676C221.551 236.217 223.471 236.834 225.373 237.514C227.858 238.405 230.309 239.402 232.728 240.507Z" fill="#353642" />
    <path d="M62.9258 231.402C68.7102 223.928 76.6867 218.448 85.7392 215.731C84.5334 212.492 83.5766 209.166 82.8772 205.781C75.366 169.249 98.8567 133.535 135.379 126.001C171.901 118.468 207.629 141.949 215.159 178.471C216.001 182.564 216.469 186.724 216.558 190.902C219.167 189.976 221.837 189.232 224.549 188.676C256.467 182.077 287.695 202.614 294.284 234.538C296.143 243.514 295.883 252.8 293.524 261.658C291.166 270.516 286.773 278.702 280.695 285.564" stroke="#9F9F9F" stroke-width="4.83" stroke-miterlimit="10" />
    <path d="M142.537 289.027H144.792C145.44 289.043 146.083 288.907 146.67 288.631C147.256 288.355 147.771 287.946 148.172 287.437C148.183 287.425 148.19 287.411 148.194 287.396C149.003 286.29 149.371 284.923 149.228 283.561L149.043 282.126L148.891 280.969L149.444 280.651L158.113 275.537L158.698 275.2C162.93 272.71 163.236 268.068 161.576 263.67C161.547 263.59 161.525 263.517 161.496 263.444C161.423 263.259 161.35 263.088 161.28 262.913C160.855 261.936 160.355 260.994 159.782 260.095C157.591 256.671 154.414 253.885 151.39 253.157C150.543 252.964 149.677 252.868 148.808 252.87C146.996 252.87 144.992 253.217 143.94 254.263C155.184 243.2 168.321 232.817 184.122 229.596C196.645 227.014 209.595 227.358 221.964 230.601C236.414 234.445 249.439 242.437 259.758 253.217C260.302 253.783 260.833 254.355 261.348 254.941C274.281 269.155 282.53 287.109 287.742 305.484" stroke="black" stroke-width="4.83" stroke-miterlimit="10" />
    <path d="M146.503 305.493H302.1" stroke="black" stroke-width="4.83" stroke-miterlimit="10" />
    <path d="M185.674 305.49H203.329" stroke="black" stroke-width="3.22" stroke-miterlimit="10" />
    <path d="M200.432 265.867C192.241 262.137 187.89 251.85 191.166 243.337C195.071 233.189 207.45 232.01 216.606 234.592C218.476 235.115 220.334 235.707 222.18 236.366C242.764 243.68 261.469 258.865 271.683 278.104C272.545 279.732 273.232 281.405 273.928 283.109C274.867 285.399 275.254 287.877 275.059 290.345C274.863 292.812 274.09 295.198 272.801 297.311C271.513 299.424 269.746 301.205 267.643 302.509C265.539 303.813 263.159 304.604 260.693 304.819L203.329 305.49H185.674C184.114 305.49 182.593 305.002 181.325 304.094C180.057 303.186 179.104 301.904 178.602 300.427C176.665 294.703 179.168 290.385 182.332 287.443C185.633 284.378 189.938 282.626 194.416 282.174L226.642 278.918C226.95 278.886 227.242 278.761 227.477 278.559C227.713 278.357 227.881 278.088 227.96 277.788C228.038 277.488 228.023 277.171 227.917 276.88C227.81 276.588 227.617 276.336 227.364 276.158L200.432 265.867Z" stroke="black" stroke-width="4.83" stroke-miterlimit="10" />
    <path d="M190.825 288.426C187.884 290.118 184.86 292.767 183.849 296.122C182.685 299.985 185.416 303.496 188.52 305.506" stroke="black" stroke-width="4.83" stroke-miterlimit="10" />
    <path d="M193.98 292.859C191.236 295.47 188.857 298.78 190.444 302.717C190.898 303.797 191.604 304.753 192.504 305.503" stroke="black" stroke-width="4.83" stroke-miterlimit="10" />
    <path d="M199.364 297.966C199.364 297.966 193.045 302.663 197.058 305.48" stroke="black" stroke-width="4.83" stroke-miterlimit="10" />
    <path d="M183.146 305.042L183.257 305.493H173.062C169.729 305.493 165.112 304.981 165.548 301.26C165.983 297.54 177.918 296.525 177.918 296.525" stroke="black" stroke-width="4.83" stroke-miterlimit="10" />
    <path d="M164.858 188.046L143.16 191.293L146.941 193.958L154.014 199.621C155.12 200.4 154.844 202.238 155.457 203.355C155.69 205.039 155.426 206.755 154.696 208.291C153.966 209.828 152.803 211.117 151.35 212C149.896 212.884 148.216 213.323 146.517 213.264C144.817 213.205 143.172 212.65 141.783 211.667L124.723 199.666C122.839 198.366 121.328 196.596 120.338 194.533C118.942 187.585 123.225 179.858 131.468 178.633L155.184 175.072L151.686 172.356L140.915 163.974C139.993 163.259 139.223 162.367 138.651 161.35C138.412 159.628 138.692 157.874 139.456 156.313C140.22 154.751 141.433 153.453 142.939 152.586C144.446 151.718 146.177 151.321 147.911 151.444C149.645 151.567 151.303 152.205 152.672 153.276L171.885 168.222C173.457 169.429 174.727 170.983 175.596 172.763C176.907 179.479 172.715 186.866 164.858 188.046Z" fill="#3F51B5" />
    <path d="M148.894 280.966C148.894 280.966 148.233 275.146 145.991 273.095" stroke="black" stroke-width="4.83" stroke-miterlimit="10" />
    <path d="M121.187 260.076C123.351 259.013 125.715 258.415 128.125 258.322C130.535 258.229 132.938 258.643 135.179 259.536C135.915 259.807 136.713 259.862 137.479 259.693C138.245 259.524 138.947 259.138 139.5 258.582L143.93 254.244" stroke="black" stroke-width="4.83" stroke-miterlimit="10" />
    <path d="M135.268 284.798L138.966 286.461C139.048 286.495 139.137 286.511 139.226 286.509C139.315 286.506 139.402 286.485 139.483 286.447C139.563 286.408 139.634 286.354 139.692 286.286C139.75 286.218 139.793 286.139 139.818 286.054L140.4 284.737" stroke="black" stroke-width="4.83" stroke-miterlimit="10" />
    <path d="M135.872 277.452C136.182 278.163 136.289 278.946 136.183 279.715C136.076 280.484 135.76 281.208 135.268 281.808" stroke="black" stroke-width="3.22" stroke-miterlimit="10" />
    <path d="M144.261 289.024C144.843 288.162 144.839 286.079 144.69 285.243C144.595 284.712 143.701 284.521 143.606 285.055C143.345 286.547 141.663 288.839 140.108 289.024" stroke="black" stroke-width="4.83" stroke-miterlimit="10" />
    <path d="M136.794 283.402C139.416 283.402 141.542 281.276 141.542 278.654C141.542 276.032 139.416 273.906 136.794 273.906C134.172 273.906 132.046 276.032 132.046 278.654C132.046 281.276 134.172 283.402 136.794 283.402Z" stroke="black" stroke-width="4.83" stroke-miterlimit="10" />
    <path d="M135.204 283.125L134.358 285.504C133.771 285.294 133.148 285.203 132.525 285.234C131.902 285.266 131.292 285.42 130.729 285.687C130.166 285.955 129.661 286.331 129.243 286.794C128.825 287.256 128.503 287.797 128.294 288.385" stroke="black" stroke-width="4.83" stroke-miterlimit="10" />
    <path opacity="0.53" d="M136.794 282.673C139.014 282.673 140.814 280.874 140.814 278.654C140.814 276.434 139.014 274.634 136.794 274.634C134.574 274.634 132.775 276.434 132.775 278.654C132.775 280.874 134.574 282.673 136.794 282.673Z" fill="white" />
    <path d="M127.2 284.219C128.695 283.316 129.903 281.993 130.262 280.193C130.561 278.663 130.142 276.841 129.782 275.324C129.437 273.739 128.929 272.194 128.265 270.713C130.574 271.137 132.935 271.192 135.261 270.876C136.346 270.755 141.523 268.777 138.416 267.813C137.149 267.469 135.916 267.013 134.73 266.449C133.814 265.975 132.209 265.053 132.151 263.883C132.147 263.567 132.236 263.256 132.405 262.989C132.574 262.722 132.818 262.51 133.105 262.379C133.533 262.186 133.999 262.09 134.468 262.098C134.938 262.106 135.4 262.218 135.821 262.426C136.526 262.758 137.171 263.205 137.729 263.749C138.715 264.703 139.252 265.657 140.798 265.412C141.731 265.211 142.634 264.891 143.485 264.458C144.488 263.999 145.306 263.215 145.806 262.232C146.576 260.442 143.962 258.734 142.544 258.222C141.756 257.913 140.894 257.842 140.066 258.019" stroke="black" stroke-width="4.83" stroke-miterlimit="10" />
    <path d="M164.858 188.046L143.16 191.293L146.941 193.958L151.832 197.392C152.792 198.042 153.613 198.877 154.247 199.848C154.881 200.819 155.315 201.907 155.524 203.047C155.733 204.188 155.712 205.358 155.464 206.491C155.215 207.623 154.743 208.695 154.076 209.643C153.409 210.592 152.559 211.397 151.577 212.014C150.595 212.63 149.5 213.044 148.356 213.233C147.212 213.421 146.042 213.38 144.914 213.111C143.786 212.842 142.723 212.351 141.787 211.667L124.726 199.666C122.843 198.366 121.331 196.596 120.341 194.533C116.712 187 120.954 176.967 130.434 175.552L149.25 172.734L151.686 172.356L140.915 163.974C140.011 163.27 139.254 162.395 138.688 161.398C138.122 160.402 137.758 159.304 137.616 158.167C137.474 157.029 137.558 155.875 137.862 154.771C138.166 153.666 138.685 152.632 139.389 151.727C140.093 150.823 140.968 150.066 141.964 149.5C142.961 148.934 144.059 148.57 145.196 148.428C146.333 148.286 147.487 148.37 148.592 148.674C149.697 148.978 150.731 149.497 151.635 150.201L170.849 165.147C173.308 167.017 174.993 169.727 175.584 172.76C176.907 179.479 172.715 186.866 164.858 188.046Z" stroke="black" stroke-width="4.83" stroke-miterlimit="10" />
    <path d="M117.234 224.931L117.024 219.388L114.566 221.907C114.149 222.333 113.58 222.576 112.984 222.583C112.388 222.59 111.813 222.361 111.386 221.945V221.945C110.96 221.528 110.716 220.959 110.709 220.363C110.702 219.767 110.932 219.192 111.348 218.765L115.752 214.268C116.206 213.804 116.786 213.483 117.421 213.345C118.055 213.207 118.716 213.258 119.322 213.491C119.928 213.725 120.452 214.132 120.829 214.66C121.206 215.189 121.42 215.817 121.444 216.466L121.651 222.12L123.464 220.075C123.659 219.853 123.897 219.672 124.163 219.543C124.429 219.413 124.718 219.337 125.014 219.319C125.309 219.302 125.605 219.342 125.885 219.439C126.165 219.536 126.422 219.687 126.644 219.884V219.884C126.865 220.08 127.046 220.318 127.176 220.584C127.306 220.85 127.382 221.139 127.4 221.434C127.418 221.729 127.377 222.025 127.281 222.305C127.184 222.585 127.034 222.843 126.837 223.064L123.266 227.093C122.811 227.613 122.209 227.984 121.54 228.157C120.871 228.331 120.165 228.299 119.514 228.066C118.863 227.832 118.298 227.409 117.891 226.849C117.484 226.29 117.255 225.622 117.234 224.931V224.931Z" fill="#D7E8F0" />
    <path d="M135.659 234.929L138.276 234.344L136.861 233.39C136.621 233.228 136.455 232.978 136.399 232.695C136.343 232.411 136.402 232.117 136.562 231.876C136.723 231.636 136.974 231.47 137.258 231.415C137.541 231.359 137.836 231.419 138.076 231.58L140.601 233.269C140.862 233.444 141.067 233.691 141.189 233.981C141.311 234.271 141.345 234.591 141.287 234.9C141.229 235.209 141.082 235.495 140.863 235.721C140.644 235.947 140.364 236.104 140.057 236.172L137.376 236.776L138.511 237.46C138.634 237.534 138.74 237.631 138.825 237.746C138.91 237.861 138.971 237.992 139.006 238.131C139.04 238.27 139.046 238.414 139.025 238.555C139.003 238.697 138.954 238.832 138.88 238.955V238.955C138.731 239.202 138.49 239.38 138.21 239.45C137.93 239.519 137.633 239.475 137.386 239.327L135.16 237.982C134.873 237.811 134.645 237.557 134.504 237.255C134.364 236.952 134.317 236.615 134.371 236.285C134.425 235.956 134.577 235.651 134.806 235.409C135.036 235.167 135.333 235 135.659 234.929V234.929Z" fill="#D7E8F0" />
    <path d="M129.041 250.215L129.254 248.466L128.354 249.134C128.279 249.19 128.193 249.231 128.102 249.254C128.011 249.277 127.916 249.282 127.823 249.268C127.73 249.255 127.641 249.223 127.56 249.175C127.479 249.127 127.409 249.063 127.353 248.988V248.988C127.24 248.835 127.192 248.644 127.219 248.457C127.247 248.269 127.347 248.1 127.499 247.986L129.089 246.793C129.255 246.67 129.453 246.598 129.659 246.586C129.865 246.574 130.07 246.623 130.249 246.727C130.428 246.83 130.572 246.984 130.665 247.169C130.757 247.354 130.793 247.561 130.768 247.767L130.552 249.554L131.223 249C131.295 248.941 131.379 248.896 131.469 248.868C131.559 248.841 131.654 248.831 131.747 248.841C131.841 248.85 131.932 248.877 132.015 248.922C132.098 248.966 132.171 249.026 132.231 249.099V249.099C132.291 249.172 132.335 249.255 132.363 249.345C132.39 249.435 132.4 249.53 132.391 249.623C132.381 249.717 132.354 249.808 132.31 249.891C132.265 249.974 132.205 250.047 132.132 250.107L130.809 251.195C130.64 251.329 130.435 251.411 130.219 251.429C130.003 251.447 129.787 251.4 129.598 251.295C129.409 251.191 129.255 251.032 129.156 250.84C129.057 250.647 129.017 250.43 129.041 250.215V250.215Z" fill="#D7E8F0" />
    <path d="M232.728 240.726L232.595 240.952C232.493 240.888 232.387 240.833 232.277 240.786L232.728 240.726Z" fill="#353642" />
</svg>
